<?xml version="1.0" standalone="no"?>
<!DOCTYPE svg PUBLIC "-//W3C//DTD SVG 20010904//EN"
 "http://www.w3.org/TR/2001/REC-SVG-20010904/DTD/svg10.dtd">
<svg version="1.0" xmlns="http://www.w3.org/2000/svg"
 width="960.000000pt" height="960.000000pt" viewBox="0 0 960.000000 960.000000"
 preserveAspectRatio="xMidYMid meet">
<metadata>
Created by potrace 1.11, written by Peter Selinger 2001-2013
</metadata>
<g transform="translate(0.000000,960.000000) scale(0.100000,-0.100000)"
fill="#000000" stroke="none">
<path d="M3462 6995 c-453 -82 -776 -402 -868 -859 -17 -85 -30 -327 -20 -379
l7 -37 377 2 377 3 -5 45 c-8 73 -3 214 10 276 16 77 61 177 105 230 23 27 59
55 101 75 57 28 76 33 143 33 171 0 289 -108 342 -311 16 -62 19 -105 18 -213
l-2 -135 374 0 374 0 3 132 c12 598 -336 1042 -892 1138 -108 18 -342 18 -444
0z"/>
<path d="M6315 6992 c-109 -40 -196 -120 -243 -220 -24 -51 -27 -68 -27 -172
0 -111 1 -117 34 -183 40 -80 114 -152 199 -194 52 -26 67 -28 168 -28 107 0
112 1 186 38 91 44 146 102 192 197 29 60 31 73 31 171 0 101 -1 108 -38 181
-43 89 -106 150 -194 193 -77 38 -229 46 -308 17z"/>
<path d="M200 6965 c0 -3 36 -98 79 -212 44 -115 147 -386 229 -603 83 -217
154 -403 157 -412 7 -17 33 -18 360 -18 195 0 356 3 358 8 2 4 -88 284 -202
622 l-206 615 -387 3 c-214 1 -388 0 -388 -3z"/>
<path d="M1675 6583 c-70 -214 -160 -490 -201 -615 -41 -125 -74 -232 -74
-238 0 -7 105 -9 338 -8 l337 3 57 150 c31 83 136 356 232 609 97 252 176 464
176 472 0 12 -60 14 -369 14 l-370 0 -126 -387z"/>
<path d="M5100 6345 l0 -625 378 2 377 3 0 620 0 620 -377 3 -378 2 0 -625z"/>
<path d="M4530 5245 c-487 -82 -832 -456 -890 -965 -11 -98 -13 -233 -4 -280
l7 -32 1065 4 1065 3 -2 176 c-1 193 -16 306 -57 433 -139 434 -498 679 -989
675 -66 -1 -154 -7 -195 -14z m328 -605 c59 -26 107 -72 137 -131 23 -45 47
-144 37 -154 -3 -3 -151 -5 -329 -5 l-323 0 6 28 c11 47 52 132 85 173 84 106
257 146 387 89z"/>
<path d="M7197 5241 c-49 -11 -122 -36 -163 -55 -72 -34 -184 -112 -184 -128
0 -5 -4 -8 -10 -8 -6 0 -10 33 -10 80 l0 80 -380 0 -380 0 0 -620 0 -620 380
0 380 0 0 203 c0 191 1 205 24 253 83 179 339 222 442 73 46 -66 56 -119 61
-331 l6 -198 373 0 373 0 3 208 3 207 31 55 c95 169 324 202 431 61 49 -64 56
-97 60 -323 l5 -208 380 0 380 0 -4 343 c-4 338 -5 343 -31 430 -69 226 -198
379 -382 456 -290 121 -697 58 -937 -146 -27 -24 -52 -43 -55 -43 -3 0 -34 27
-69 59 -75 69 -188 131 -294 161 -109 32 -313 37 -433 11z"/>
<path d="M2580 4519 l0 -570 -56 45 c-132 108 -305 166 -496 166 -306 0 -553
-119 -728 -352 -108 -143 -182 -328 -216 -537 -15 -92 -21 -371 -9 -391 4 -6
139 -10 385 -10 l379 0 -6 103 c-7 130 8 220 53 314 132 275 489 312 666 69
l28 -39 0 -224 0 -223 380 0 380 0 0 1110 0 1110 -380 0 -380 0 0 -571z"/>
<path d="M940 5021 c0 -6 43 -125 96 -265 l97 -256 238 0 238 0 29 78 c17 42
60 154 95 247 36 94 69 178 72 188 7 16 -18 17 -429 17 -264 0 -436 -4 -436
-9z"/>
<path d="M3745 3298 c10 -47 62 -175 92 -228 128 -224 324 -373 590 -448 93
-26 109 -27 303 -26 189 0 213 2 302 26 338 91 572 340 632 671 l7 37 -325 0
-324 0 -22 -45 c-45 -94 -147 -149 -275 -149 -126 0 -224 52 -281 150 l-26 44
-340 0 -340 0 7 -32z"/>
</g>
</svg>
