<svg id="Layer_1" data-name="Layer 1" xmlns="http://www.w3.org/2000/svg" viewBox="0 0 74 74"><defs><style>.cls-1{fill:#606060;}</style></defs><title>Artboard 50</title><polygon class="cls-1" points="74 48.56 67.06 48.56 67.06 46.25 71.69 46.25 71.69 6.94 55.5 6.94 55.5 46.25 60.13 46.25 60.13 48.56 53.19 48.56 53.19 4.63 74 4.63 74 48.56"/><polygon class="cls-1" points="50.88 69.38 0 69.38 0 46.25 13.88 46.25 13.88 48.56 2.31 48.56 2.31 67.06 48.56 67.06 48.56 48.56 37 48.56 37 46.25 50.88 46.25 50.88 69.38"/><rect class="cls-1" x="10.41" y="56.66" width="2.31" height="2.31"/><rect class="cls-1" x="15.03" y="56.66" width="2.31" height="2.31"/><rect class="cls-1" x="19.66" y="56.66" width="2.31" height="2.31"/><rect class="cls-1" x="24.28" y="56.66" width="2.31" height="2.31"/><rect class="cls-1" x="28.91" y="56.66" width="2.31" height="2.31"/><rect class="cls-1" x="33.53" y="56.66" width="2.31" height="2.31"/><rect class="cls-1" x="38.16" y="56.66" width="2.31" height="2.31"/><rect class="cls-1" x="10.41" y="61.28" width="2.31" height="2.31"/><rect class="cls-1" x="5.78" y="56.66" width="2.31" height="2.31"/><rect class="cls-1" x="5.78" y="61.28" width="2.31" height="2.31"/><rect class="cls-1" x="42.78" y="56.66" width="2.31" height="2.31"/><rect class="cls-1" x="10.41" y="52.03" width="2.31" height="2.31"/><rect class="cls-1" x="15.03" y="52.03" width="2.31" height="2.31"/><rect class="cls-1" x="19.66" y="52.03" width="2.31" height="2.31"/><rect class="cls-1" x="24.28" y="52.03" width="2.31" height="2.31"/><rect class="cls-1" x="28.91" y="52.03" width="2.31" height="2.31"/><rect class="cls-1" x="33.53" y="52.03" width="2.31" height="2.31"/><rect class="cls-1" x="38.16" y="52.03" width="2.31" height="2.31"/><rect class="cls-1" x="5.78" y="52.03" width="2.31" height="2.31"/><rect class="cls-1" x="42.78" y="52.03" width="2.31" height="2.31"/><rect class="cls-1" x="42.78" y="61.28" width="2.31" height="2.31"/><rect class="cls-1" x="15.03" y="61.28" width="2.31" height="2.31"/><rect class="cls-1" x="19.66" y="61.28" width="11.56" height="2.31"/><rect class="cls-1" x="33.53" y="61.28" width="2.31" height="2.31"/><rect class="cls-1" x="38.16" y="61.28" width="2.31" height="2.31"/><path class="cls-1" d="M69.38,16.19H57.81V9.25H69.38Zm-9.25-2.31h6.94V11.56H60.13Z"/><path class="cls-1" d="M69.38,25.44H57.81V18.5H69.38Zm-9.25-2.31h6.94V20.81H60.13Z"/><path class="cls-1" d="M48.56,41.63H2.31A2.31,2.31,0,0,1,0,39.31V6.94A2.31,2.31,0,0,1,2.31,4.63H48.56a2.31,2.31,0,0,1,2.31,2.31V39.31A2.31,2.31,0,0,1,48.56,41.63ZM2.31,6.94V39.31H48.56V6.94Z"/><rect class="cls-1" x="30.06" y="40.47" width="2.31" height="6.94"/><rect class="cls-1" x="18.5" y="40.47" width="2.31" height="6.94"/><rect class="cls-1" x="16.19" y="46.25" width="18.5" height="2.31"/><path class="cls-1" d="M65.91,69.38H61.28A2.31,2.31,0,0,1,59,67.06V57.81a2.31,2.31,0,0,1,2.31-2.31h4.63a2.31,2.31,0,0,1,2.31,2.31v9.25A2.31,2.31,0,0,1,65.91,69.38ZM61.28,57.81v9.25h4.63V57.81Z"/><path class="cls-1" d="M64.75,53.19H62.44V48.56a2.31,2.31,0,0,1,2.31-2.31h2.31v2.31H64.75Z"/><path class="cls-1" d="M63.59,42.78a4.63,4.63,0,1,1,4.63-4.62A4.63,4.63,0,0,1,63.59,42.78Zm0-6.94a2.31,2.31,0,1,0,2.31,2.31A2.31,2.31,0,0,0,63.59,35.84Z"/><polygon class="cls-1" points="46.25 37 38.16 37 38.16 34.69 43.94 34.69 43.94 11.56 6.94 11.56 6.94 34.69 12.72 34.69 12.72 37 4.63 37 4.63 9.25 46.25 9.25 46.25 37"/><rect class="cls-1" x="24.28" y="34.69" width="2.31" height="2.31"/><rect class="cls-1" x="19.66" y="34.69" width="2.31" height="2.31"/><rect class="cls-1" x="33.53" y="34.69" width="2.31" height="2.31"/><rect class="cls-1" x="28.91" y="34.69" width="2.31" height="2.31"/><rect class="cls-1" x="15.03" y="34.69" width="2.31" height="2.31"/></svg>