<svg id="Layer_1" data-name="Layer 1" xmlns="http://www.w3.org/2000/svg" viewBox="0 0 74 74"><defs><style>.cls-1{fill:#606060;}</style></defs><title>Artboard 51</title><path class="cls-1" d="M74,74H0V0H74ZM2.31,71.69H71.69V2.31H2.31Z"/><rect class="cls-1" x="1.16" y="9.25" width="71.69" height="2.31"/><rect class="cls-1" x="4.63" y="4.63" width="2.31" height="2.31"/><rect class="cls-1" x="9.25" y="4.63" width="2.31" height="2.31"/><rect class="cls-1" x="13.88" y="4.63" width="2.31" height="2.31"/><rect class="cls-1" x="18.5" y="1.16" width="2.31" height="9.25"/><rect class="cls-1" x="18.5" y="19.66" width="2.31" height="43.94"/><rect class="cls-1" x="10.41" y="19.66" width="5.78" height="2.31"/><rect class="cls-1" x="10.41" y="24.28" width="9.25" height="2.31"/><rect class="cls-1" x="13.88" y="28.91" width="2.31" height="2.31"/><rect class="cls-1" x="13.88" y="33.53" width="2.31" height="2.31"/><rect class="cls-1" x="10.41" y="38.16" width="9.25" height="2.31"/><rect class="cls-1" x="13.88" y="47.41" width="2.31" height="2.31"/><rect class="cls-1" x="13.88" y="42.78" width="2.31" height="2.31"/><rect class="cls-1" x="13.88" y="52.03" width="2.31" height="2.31"/><rect class="cls-1" x="13.88" y="56.66" width="2.31" height="2.31"/><rect class="cls-1" x="24.28" y="35.84" width="39.31" height="2.31"/><rect class="cls-1" x="24.28" y="27.75" width="2.31" height="9.25"/><rect class="cls-1" x="28.91" y="30.06" width="2.31" height="6.94"/><rect class="cls-1" x="38.16" y="32.38" width="2.31" height="4.63"/><rect class="cls-1" x="42.78" y="27.75" width="2.31" height="9.25"/><rect class="cls-1" x="47.41" y="32.38" width="2.31" height="4.63"/><rect class="cls-1" x="52.03" y="27.75" width="2.31" height="9.25"/><rect class="cls-1" x="56.66" y="32.38" width="2.31" height="4.63"/><rect class="cls-1" x="61.28" y="30.06" width="2.31" height="6.94"/><rect class="cls-1" x="33.53" y="25.44" width="2.31" height="11.56"/><path class="cls-1" d="M31.22,48.56H25.44a1.16,1.16,0,0,1-1.16-1.16V41.63a1.16,1.16,0,0,1,1.16-1.16h5.78a1.16,1.16,0,0,1,1.16,1.16v5.78A1.16,1.16,0,0,1,31.22,48.56Zm-4.62-2.31h3.47V42.78H26.59Z"/><path class="cls-1" d="M41.63,48.56H35.84a1.16,1.16,0,0,1-1.16-1.16V41.63a1.16,1.16,0,0,1,1.16-1.16h5.78a1.16,1.16,0,0,1,1.16,1.16v5.78A1.16,1.16,0,0,1,41.63,48.56ZM37,46.25h3.47V42.78H37Z"/><path class="cls-1" d="M52,48.56H46.25a1.16,1.16,0,0,1-1.16-1.16V41.63a1.16,1.16,0,0,1,1.16-1.16H52a1.16,1.16,0,0,1,1.16,1.16v5.78A1.16,1.16,0,0,1,52,48.56Zm-4.62-2.31h3.47V42.78H47.41Z"/><path class="cls-1" d="M62.44,48.56H56.66a1.16,1.16,0,0,1-1.16-1.16V41.63a1.16,1.16,0,0,1,1.16-1.16h5.78a1.16,1.16,0,0,1,1.16,1.16v5.78A1.16,1.16,0,0,1,62.44,48.56Zm-4.62-2.31h3.47V42.78H57.81Z"/><rect class="cls-1" x="52.03" y="19.66" width="11.56" height="2.31"/><rect class="cls-1" x="45.09" y="19.66" width="4.63" height="2.31"/><rect class="cls-1" x="24.28" y="50.88" width="8.09" height="2.31"/><rect class="cls-1" x="24.28" y="55.5" width="8.09" height="2.31"/><rect class="cls-1" x="34.69" y="50.88" width="8.09" height="2.31"/><rect class="cls-1" x="34.69" y="55.5" width="8.09" height="2.31"/><rect class="cls-1" x="45.09" y="50.88" width="8.09" height="2.31"/><rect class="cls-1" x="45.09" y="55.5" width="8.09" height="2.31"/><rect class="cls-1" x="55.5" y="50.88" width="8.09" height="2.31"/><rect class="cls-1" x="55.5" y="55.5" width="8.09" height="2.31"/></svg>