<svg id="Layer_1" data-name="Layer 1" xmlns="http://www.w3.org/2000/svg" viewBox="0 0 74 74"><defs><style>.cls-1{fill:#606060;}</style></defs><title>Artboard 52</title><polygon class="cls-1" points="71.69 64.75 57.81 64.75 57.81 62.44 69.38 62.44 69.38 2.31 4.63 2.31 4.63 62.44 16.19 62.44 16.19 64.75 2.31 64.75 2.31 0 71.69 0 71.69 64.75"/><rect class="cls-1" x="3.47" y="9.25" width="67.06" height="2.31"/><rect class="cls-1" x="6.94" y="4.63" width="2.31" height="2.31"/><rect class="cls-1" x="11.56" y="4.63" width="2.31" height="2.31"/><rect class="cls-1" x="16.19" y="4.63" width="2.31" height="2.31"/><rect class="cls-1" x="20.81" y="1.16" width="2.31" height="9.25"/><path class="cls-1" d="M37,74a20.55,20.55,0,0,1-3-.24,1.16,1.16,0,0,1-.86-1.67,3.42,3.42,0,0,0,.39-1.56,3.46,3.46,0,0,0-6.77-1,1.16,1.16,0,0,1-1.78.61,20.8,20.8,0,0,1-5-5,1.16,1.16,0,0,1,.61-1.78,3.44,3.44,0,0,0,2.48-3.3,3.47,3.47,0,0,0-3.47-3.47A3.42,3.42,0,0,0,18.1,57a1.16,1.16,0,0,1-1.67-.86,18.88,18.88,0,0,1,0-6,1.16,1.16,0,0,1,1.67-.86,3.43,3.43,0,0,0,1.56.39,3.47,3.47,0,0,0,3.47-3.47,3.44,3.44,0,0,0-2.48-3.3A1.16,1.16,0,0,1,20,41.17a20.8,20.8,0,0,1,5-5,1.16,1.16,0,0,1,1.78.61,3.45,3.45,0,1,0,6.38-2.54A1.16,1.16,0,0,1,34,32.61a18.47,18.47,0,0,1,6,0,1.16,1.16,0,0,1,.86,1.67,3.42,3.42,0,0,0-.39,1.56,3.46,3.46,0,0,0,6.77,1A1.16,1.16,0,0,1,49,36.21a20.8,20.8,0,0,1,5,5,1.16,1.16,0,0,1-.61,1.78,3.44,3.44,0,0,0-2.48,3.3,3.47,3.47,0,0,0,3.47,3.47,3.42,3.42,0,0,0,1.56-.39,1.16,1.16,0,0,1,1.67.86,18.88,18.88,0,0,1,0,6A1.16,1.16,0,0,1,55.9,57a3.42,3.42,0,0,0-1.56-.39,3.47,3.47,0,0,0-3.47,3.47,3.44,3.44,0,0,0,2.48,3.3A1.16,1.16,0,0,1,54,65.21a20.8,20.8,0,0,1-5,5,1.16,1.16,0,0,1-1.78-.61,3.45,3.45,0,1,0-6.38,2.55A1.16,1.16,0,0,1,40,73.76,20.55,20.55,0,0,1,37,74Zm-1.27-2.37a14.86,14.86,0,0,0,2.54,0,5.49,5.49,0,0,1-.11-1.1,5.79,5.79,0,0,1,5.78-5.78,5.71,5.71,0,0,1,4.86,2.67A18.53,18.53,0,0,0,51.23,65a5.71,5.71,0,0,1-2.67-4.86,5.79,5.79,0,0,1,5.78-5.78,5.5,5.5,0,0,1,1.1.11c0-.44.05-.86.05-1.27s0-.82-.05-1.27a5.5,5.5,0,0,1-1.1.11,5.79,5.79,0,0,1-5.78-5.78,5.71,5.71,0,0,1,2.67-4.86A18.53,18.53,0,0,0,48.79,39a5.71,5.71,0,0,1-4.86,2.67,5.79,5.79,0,0,1-5.78-5.78,5.48,5.48,0,0,1,.11-1.1,14.86,14.86,0,0,0-2.54,0,5.48,5.48,0,0,1,.11,1.1,5.79,5.79,0,0,1-5.78,5.78A5.71,5.71,0,0,1,25.21,39a18.53,18.53,0,0,0-2.44,2.44,5.71,5.71,0,0,1,2.67,4.86A5.79,5.79,0,0,1,19.66,52a5.5,5.5,0,0,1-1.1-.11c0,.44-.05.86-.05,1.27s0,.82.05,1.27a5.5,5.5,0,0,1,1.1-.11,5.79,5.79,0,0,1,5.78,5.78A5.71,5.71,0,0,1,22.77,65a18.53,18.53,0,0,0,2.44,2.44,5.71,5.71,0,0,1,4.86-2.67,5.79,5.79,0,0,1,5.78,5.78A5.48,5.48,0,0,1,35.73,71.63Z"/><path class="cls-1" d="M37,57.81a4.63,4.63,0,1,1,4.63-4.62A4.63,4.63,0,0,1,37,57.81Zm0-6.94a2.31,2.31,0,1,0,2.31,2.31A2.32,2.32,0,0,0,37,50.88Z"/><rect class="cls-1" x="6.94" y="13.88" width="11.56" height="2.31"/><rect class="cls-1" x="6.94" y="18.5" width="16.19" height="2.31"/><rect class="cls-1" x="6.94" y="23.13" width="6.94" height="2.31"/><rect class="cls-1" x="25.44" y="18.5" width="9.25" height="2.31"/><rect class="cls-1" x="37" y="18.5" width="9.25" height="2.31"/><rect class="cls-1" x="16.19" y="23.13" width="9.25" height="2.31"/><rect class="cls-1" x="6.94" y="28.91" width="9.25" height="2.31"/><rect class="cls-1" x="20.81" y="13.88" width="9.25" height="2.31"/></svg>