<svg id="Layer_1" data-name="Layer 1" xmlns="http://www.w3.org/2000/svg" viewBox="0 0 74 74"><defs><style>.cls-1{fill:#606060;}</style></defs><title>Artboard 49</title><path class="cls-1" d="M32.38,71.69H6.94A7,7,0,0,1,0,64.75V9.25A7,7,0,0,1,6.94,2.31H32.38a7,7,0,0,1,6.94,6.94v55.5A7,7,0,0,1,32.38,71.69ZM6.94,4.63A4.63,4.63,0,0,0,2.31,9.25v55.5a4.63,4.63,0,0,0,4.63,4.63H32.38A4.63,4.63,0,0,0,37,64.75V9.25a4.63,4.63,0,0,0-4.62-4.62Z"/><rect class="cls-1" x="1.16" y="60.13" width="37" height="2.31"/><rect class="cls-1" x="1.16" y="16.19" width="37" height="2.31"/><rect class="cls-1" x="17.34" y="64.75" width="4.63" height="2.31"/><rect class="cls-1" x="11.56" y="9.25" width="2.31" height="2.31"/><rect class="cls-1" x="16.19" y="9.25" width="11.56" height="2.31"/><rect class="cls-1" x="18.5" y="48.56" width="2.31" height="2.31"/><rect class="cls-1" x="13.88" y="48.56" width="2.31" height="2.31"/><rect class="cls-1" x="23.13" y="48.56" width="2.31" height="2.31"/><rect class="cls-1" x="11.56" y="53.19" width="16.19" height="2.31"/><path class="cls-1" d="M19.66,46.25A11.56,11.56,0,1,1,31.22,34.69,11.58,11.58,0,0,1,19.66,46.25Zm0-20.81a9.25,9.25,0,1,0,9.25,9.25A9.26,9.26,0,0,0,19.66,25.44Z"/><path class="cls-1" d="M19.66,37a4.63,4.63,0,1,1,4.63-4.62A4.63,4.63,0,0,1,19.66,37Zm0-6.94A2.31,2.31,0,1,0,22,32.38,2.32,2.32,0,0,0,19.66,30.06Z"/><path class="cls-1" d="M25.44,43.94H23.13V40.47a3.47,3.47,0,0,0-6.94,0v3.47H13.88V40.47a5.78,5.78,0,0,1,11.56,0Z"/><polygon class="cls-1" points="74 71.69 41.63 71.69 41.63 69.38 71.69 69.38 71.69 4.63 41.63 4.63 41.63 2.31 74 2.31 74 71.69"/><rect class="cls-1" x="41.63" y="11.56" width="31.22" height="2.31"/><polygon class="cls-1" points="62.44 37 41.63 37 41.63 34.69 60.13 34.69 60.13 30.06 41.63 30.06 41.63 27.75 62.44 27.75 62.44 37"/><rect class="cls-1" x="53.19" y="23.13" width="9.25" height="2.31"/><path class="cls-1" d="M56.66,50.88a5.78,5.78,0,1,1,5.78-5.78A5.79,5.79,0,0,1,56.66,50.88Zm0-9.25a3.47,3.47,0,1,0,3.47,3.47A3.47,3.47,0,0,0,56.66,41.63Z"/><path class="cls-1" d="M41.63,50.88V48.56a3.47,3.47,0,0,0,0-6.94V39.31a5.78,5.78,0,0,1,0,11.56Z"/><rect class="cls-1" x="41.63" y="53.19" width="5.78" height="2.31"/><rect class="cls-1" x="50.88" y="53.19" width="11.56" height="2.31"/><rect class="cls-1" x="41.63" y="57.81" width="5.78" height="2.31"/><rect class="cls-1" x="50.88" y="57.81" width="11.56" height="2.31"/></svg>