<?xml version="1.0" encoding="utf-8"?>
<!-- Generator: Adobe Illustrator 19.0.0, SVG Export Plug-In . SVG Version: 6.00 Build 0)  -->
<svg version="1.1" id="Layer_1" xmlns="http://www.w3.org/2000/svg" xmlns:xlink="http://www.w3.org/1999/xlink" x="0px" y="0px"
	 viewBox="0 0 42 61" style="enable-background:new 0 0 42 61;" xml:space="preserve">
<style type="text/css">
	.st0{filter:url(#Adobe_OpacityMaskFilter);}
	.st1{fill:#FFFFFF;}
	.st2{mask:url(#mask6_outline_ins_2_);}
</style>
<g id="mobile_icon" figma:type="frame">
	<g id="Rectangle_3_Copy" figma:type="vector">
		<defs>
			<filter id="Adobe_OpacityMaskFilter" filterUnits="userSpaceOnUse" x="0" y="0" width="42" height="61">
				<feColorMatrix  type="matrix" values="1 0 0 0 0  0 1 0 0 0  0 0 1 0 0  0 0 0 1 0"/>
			</filter>
		</defs>
		<mask maskUnits="userSpaceOnUse" x="0" y="0" width="42" height="61" id="mask6_outline_ins_2_">
			<g id="XMLID_18_" transform="translate(656 2343)" class="st0">
				<path id="path35_fill_2_" class="st1" d="M1,6c0-2.8,2.2-5,5-5h30c2.8,0,5,2.2,5,5v49c0,2.8-2.2,5-5,5H6c-2.8,0-5-2.2-5-5V6z"/>
			</g>
		</mask>
		<g id="XMLID_19_" class="st2">
			<g id="XMLID_20_" transform="translate(656 2343)">
				<path id="path36_stroke_2x" class="st1" d="M6,2h30V0H6V2z M40,6v49h2V6H40z M36,59H6v2h30V59z M2,55V6H0v49H2z M6,0
					C2.7,0,0,2.7,0,6h2c0-2.2,1.8-4,4-4V0z M36,2c2.2,0,4,1.8,4,4h2c0-3.3-2.7-6-6-6V2z M40,55c0,2.2-1.8,4-4,4v2c3.3,0,6-2.7,6-6
					H40z M6,59c-2.2,0-4-1.8-4-4H0c0,3.3,2.7,6,6,6V59z"/>
			</g>
		</g>
	</g>
	<g id="Oval" figma:type="vector">
		<g id="XMLID_16_" transform="translate(675 2395)">
			<path id="path37_fill" class="st1" d="M21.5,56c0.8,0,1.5-0.7,1.5-1.5c0-0.8-0.7-1.5-1.5-1.5c-0.8,0-1.5,0.7-1.5,1.5
				C20,55.3,20.7,56,21.5,56z"/>
		</g>
	</g>
</g>
</svg>
