<?xml version="1.0" encoding="utf-8"?>
<!-- Generator: Adobe Illustrator 19.0.0, SVG Export Plug-In . SVG Version: 6.00 Build 0)  -->
<svg version="1.1" id="Layer_1" xmlns="http://www.w3.org/2000/svg" xmlns:xlink="http://www.w3.org/1999/xlink" x="0px" y="0px"
	 viewBox="0 0 82 61" style="enable-background:new 0 0 82 61;" xml:space="preserve">
<style type="text/css">
	.st0{filter:url(#Adobe_OpacityMaskFilter);}
	.st1{fill:#FFFFFF;}
	.st2{mask:url(#mask5_outline_ins_1_);}
</style>
<g id="desktop_icon">
	<g id="Rectangle_3">
		<defs>
			<filter id="Adobe_OpacityMaskFilter" filterUnits="userSpaceOnUse" x="0" y="0" width="82" height="54">
				<feColorMatrix  type="matrix" values="1 0 0 0 0  0 1 0 0 0  0 0 1 0 0  0 0 0 1 0"/>
			</filter>
		</defs>
		<mask maskUnits="userSpaceOnUse" x="0" y="0" width="82" height="54" id="mask5_outline_ins_1_">
			<g id="XMLID_42_" transform="translate(556 2343)" class="st0">
				<path id="path31_fill_1_" class="st1" d="M1,6c0-2.8,2.2-5,5-5h70c2.8,0,5,2.2,5,5v42c0,2.8-2.2,5-5,5H6c-2.8,0-5-2.2-5-5V6z"/>
			</g>
		</mask>
		<g id="XMLID_12_" class="st2">
			<g id="XMLID_13_" transform="translate(556 2343)">
				<path id="path32_stroke_2x" class="st1" d="M6,2h70V0H6V2z M80,6v42h2V6H80z M76,52H6v2h70V52z M2,48V6H0v42H2z M6,0
					C2.7,0,0,2.7,0,6h2c0-2.2,1.8-4,4-4V0z M76,2c2.2,0,4,1.8,4,4h2c0-3.3-2.7-6-6-6V2z M80,48c0,2.2-1.8,4-4,4v2c3.3,0,6-2.7,6-6
					H80z M6,52c-2.2,0-4-1.8-4-4H0c0,3.3,2.7,6,6,6V52z"/>
			</g>
		</g>
	</g>
	<g id="Line">
		<g id="XMLID_6_" transform="translate(595 2394)">
			<path id="path33_stroke" class="st1" d="M41,60.5V61h1v-0.5H41z M42,52.5V52h-1v0.5H42z M42,60.5v-8h-1v8H42z"/>
		</g>
	</g>
	<g id="Line_1_">
		<g id="XMLID_2_" transform="translate(576 2401)">
			<path id="path34_stroke" class="st1" d="M21.5,60H21v1h0.5V60z M60.5,61H61v-1h-0.5V61z M21.5,61h39v-1h-39V61z"/>
		</g>
	</g>
</g>
</svg>
