<?xml version="1.0" encoding="utf-8"?>
<!-- Generator: Adobe Illustrator 19.0.0, SVG Export Plug-In . SVG Version: 6.00 Build 0)  -->
<svg version="1.1" id="Layer_1" xmlns="http://www.w3.org/2000/svg" xmlns:xlink="http://www.w3.org/1999/xlink" x="0px" y="0px"
	 viewBox="0 0 38 27.3" style="enable-background:new 0 0 38 27.3;" xml:space="preserve">
<style type="text/css">
	.st0{filter:url(#Adobe_OpacityMaskFilter);}
	.st1{fill:#FFFFFF;}
	.st2{mask:url(#mask6_outline_ins_2_);}
</style>
<g id="mobile_icon">
	<g id="Rectangle_3_Copy">
		<defs>
			<filter id="Adobe_OpacityMaskFilter" filterUnits="userSpaceOnUse" x="6" y="61" width="30" height="0">
				<feColorMatrix  type="matrix" values="1 0 0 0 0  0 1 0 0 0  0 0 1 0 0  0 0 0 1 0"/>
			</filter>
		</defs>
		<mask maskUnits="userSpaceOnUse" x="6" y="61" width="30" height="0" id="mask6_outline_ins_2_">
			<g id="XMLID_18_" transform="translate(656 2343)" class="st0">
				<path id="path35_fill_2_" class="st1" d="M1,6c0-2.8,2.2-5,5-5h30c2.8,0,5,2.2,5,5v49c0,2.8-2.2,5-5,5H6c-2.8,0-5-2.2-5-5V6z"/>
			</g>
		</mask>
		<g id="XMLID_19_" class="st2">
			<g id="XMLID_20_" transform="translate(656 2343)">
				<path id="path36_stroke_2x" class="st1" d="M6,61h30 M36,61 M6,61"/>
			</g>
		</g>
	</g>
</g>
<g id="XMLID_79_">
	<path id="XMLID_88_" class="st1" d="M18.2,27.1c0-0.1,0-0.1,0-0.2c0-2,0-4,0-5.9c0-0.3-0.2-0.3-0.4-0.3c-0.2,0-0.4,0-0.4,0.3
		c0,1.5,0,3.1,0,4.6c0,0.1,0,0.3,0,0.4c-0.1-0.1-0.2-0.2-0.2-0.2c-1-1.6-2-3.1-3-4.7c-0.2-0.3-0.4-0.5-0.8-0.4c-0.4,0-0.4,0-0.4,0.4
		c0,1.8,0,3.6,0,5.4c0,0.6,0,0.6,0.6,0.6c0,0,0,0,0.1-0.1c0-1.8,0-3.5,0-5.4c0.1,0.1,0.1,0.1,0.1,0.1c1.1,1.7,2.2,3.4,3.3,5.1
		c0.1,0.1,0.2,0.2,0.2,0.2C17.7,27.1,18,27.1,18.2,27.1z M21,23.9c0,0.1,0,0.3,0,0.4c0.1,1.6,1.2,2.7,2.7,2.8
		c1.6,0.1,2.8-0.7,3.1-2.3c0.1-0.6,0.1-1.2,0-1.8c-0.2-1.1-0.7-1.9-1.8-2.2c-1.1-0.4-2.2-0.2-3.1,0.5C21.3,22,21,22.9,21,23.9z
		 M26.2,24.8c-0.2,1.2-1.1,1.8-2.3,1.8c-1,0-1.9-0.8-2.1-1.9c0-0.2-0.1-0.5-0.1-0.7c0,0,0,0-0.1,0c0.1-0.5,0.2-1,0.4-1.4
		c0.4-0.9,1.4-1.3,2.4-1.2c0.9,0.2,1.6,0.9,1.7,1.9C26.3,23.7,26.3,24.3,26.2,24.8z M10.1,24.2c0.1-0.6,0.1-0.6-0.5-0.6
		c-0.5,0-1,0-1.5,0c-0.2,0-0.3-0.1-0.3-0.3c0-0.5,0-1.1,0-1.6c0-0.2,0.1-0.3,0.3-0.3c0.4,0,0.8,0,1.2,0c0.3,0,0.7,0,1,0
		c0.1-0.6,0.1-0.6-0.5-0.6c-0.8,0-1.6,0-2.3,0c-0.3,0-0.4,0-0.4,0.3c0,1.9,0,3.8,0,5.7c0,0.1,0,0.2,0,0.3c1.1,0,2.2,0,3.3,0
		c0-0.2,0-0.4,0-0.6c-0.9,0-1.7,0-2.6,0c0-0.7,0-1.3,0-1.9c0-0.3,0.1-0.4,0.4-0.4C8.8,24.2,9.4,24.2,10.1,24.2z M2.7,27.1
		c0-0.1,0-0.3,0-0.4c0-1.6,0-3.3,0-4.9c0-0.3,0.1-0.4,0.4-0.4c0.5,0,1,0,1.4,0c0.1-0.6,0.1-0.6-0.5-0.6c-1.2,0-2.3,0-3.5,0
		c-0.3,0-0.4,0.1-0.4,0.4c0,0.1,0,0.2,0,0.3c0.5,0,0.9,0,1.3,0c0.5,0,0.5,0,0.5,0.4c0,1.6,0,3.3,0,4.9c0,0.1,0,0.2,0,0.3
		C2.3,27.1,2.5,27.1,2.7,27.1z M33,26.4c-0.9,0-1.7,0-2.5,0c0-0.2,0-0.3,0-0.4c0-1.7,0-3.3,0-5c0-0.3-0.1-0.3-0.4-0.3
		c-0.2,0-0.4,0-0.4,0.3c0,1.9,0,3.8,0,5.7c0,0.1,0,0.2,0,0.3c1.1,0,2.2,0,3.2,0C33,26.9,33,26.7,33,26.4z M35.5,21.4
		c0,0.1,0,0.3,0,0.4c0,1.4,0,2.8,0,4.2c0,0.5,0,0.5-0.5,0.5c0,0-0.1,0-0.1,0c0,0.2,0,0.4,0,0.5c0.7,0,1.3,0,1.9,0c0-0.2,0-0.4,0-0.5
		c-0.1,0-0.1,0-0.2,0c-0.5,0-0.4,0-0.4-0.4c0-1.4,0-2.9,0-4.3c0-0.1,0-0.2,0-0.4c0.2,0,0.4,0,0.6,0c0-0.1,0-0.1,0-0.2
		c0-0.4,0-0.4-0.4-0.4c-0.4,0-0.7,0-1.1,0c-0.5,0-0.5,0-0.5,0.5c0,0,0,0,0,0.1C35.1,21.4,35.3,21.4,35.5,21.4z"/>
	<path id="XMLID_85_" class="st1" d="M0.3,18.6c0-0.2,0-0.5,0-0.7C0.5,14.9,1,12,2,9.1c0.7-2,1.7-3.9,3.2-5.5
		c1.7-1.8,3.7-2.9,6.1-3.1c2-0.2,3.9,0.2,5.8,0.8c3.5,1.2,6.7,3.2,9.5,5.5c1,0.8,2,1.8,3,2.7c0.1,0.1,0.3,0.2,0.4,0.1
		c2.5-0.7,5-1.4,7.5-2c0,0,0,0.1,0,0.1c-2.4,0.8-4.8,1.7-7.2,2.5c0.3,0.3,0.6,0.6,0.9,0.9c0.2,0.2,0.4,0.4,0.6,0.7
		C32,12,32.2,12,32.4,12c1.4-0.2,2.7-0.4,4.1-0.6c0.5-0.1,1-0.1,1.5-0.2c0,0,0,0.1,0,0.1c-1.7,0.5-3.5,0.9-5.2,1.4
		c1.7,1.9,3.3,3.8,4.7,5.8c0,0,0,0.1-0.1,0.1c-0.1-0.1-0.2-0.1-0.3-0.2c-1.6-1.4-3.2-2.9-4.7-4.3c-0.3-0.3-0.6-0.6-1-0.8
		c-0.1-0.1-0.3-0.1-0.4-0.1c-3.8,0.9-7.7,1.6-11.5,2.3c-3.5,0.6-7.1,1.3-10.6,2c-2.2,0.4-4.4,0.8-6.6,1.2c-0.2,0-0.5,0.1-0.7,0.1
		c8.8-2.8,17.6-5.7,26.3-8.5c0-0.1-0.1-0.1-0.1-0.1c-2.6-2.1-5.2-4.3-8.1-6c-1.7-1-3.6-1.8-5.6-2.2c-3.2-0.6-6.1,0.2-8.3,2.6
		c-1.7,1.8-2.8,4-3.6,6.3c-0.8,2.3-1.3,4.6-1.6,6.9C0.4,18.1,0.4,18.3,0.3,18.6C0.3,18.6,0.3,18.6,0.3,18.6z M5.2,17.7
		c8.3-1.7,16.6-3.7,25-5.4c-0.6-0.5-1.1-1-1.7-1.4c-0.1-0.1-0.2,0-0.3,0c-1.6,0.5-3.3,1-4.9,1.5c-5.3,1.6-10.7,3.2-16.1,4.7
		C6.6,17.3,5.9,17.5,5.2,17.7z"/>
	<path id="XMLID_84_" class="st1" d="M18.2,27.1c-0.3,0-0.5,0-0.7,0c-0.1,0-0.2-0.1-0.2-0.2c-1.1-1.7-2.2-3.4-3.3-5.1
		c0,0,0-0.1-0.1-0.1c0,1.8,0,3.6,0,5.4c0,0-0.1,0.1-0.1,0.1c-0.6,0.1-0.6,0.1-0.6-0.6c0-1.8,0-3.6,0-5.4c0-0.4,0-0.4,0.4-0.4
		c0.4,0,0.6,0.1,0.8,0.4c1,1.6,2,3.1,3,4.7c0.1,0.1,0.1,0.2,0.2,0.2c0-0.1,0-0.3,0-0.4c0-1.5,0-3.1,0-4.6c0-0.3,0.2-0.3,0.4-0.3
		c0.2,0,0.4-0.1,0.4,0.3c0,2,0,4,0,5.9C18.3,27,18.3,27,18.2,27.1z"/>
	<path id="XMLID_83_" class="st1" d="M10.1,24.2c-0.6,0-1.3,0-1.9,0c-0.3,0-0.4,0.1-0.4,0.4c0,0.6,0,1.2,0,1.9c0.9,0,1.7,0,2.6,0
		c0,0.2,0,0.4,0,0.6c-1.1,0-2.2,0-3.3,0c0-0.1,0-0.2,0-0.3c0-1.9,0-3.8,0-5.7c0-0.3,0.1-0.3,0.4-0.3c0.8,0,1.6,0,2.3,0
		c0.6,0,0.6,0,0.5,0.6c-0.3,0-0.7,0-1,0c-0.4,0-0.8,0-1.2,0c-0.2,0-0.3,0.1-0.3,0.3c0,0.5,0,1.1,0,1.6c0,0.2,0.1,0.3,0.3,0.3
		c0.5,0,1,0,1.5,0C10.1,23.6,10.1,23.6,10.1,24.2z"/>
	<path id="XMLID_82_" class="st1" d="M2.7,27.1c-0.3,0-0.5,0-0.7,0c0-0.1,0-0.2,0-0.3c0-1.6,0-3.3,0-4.9c0-0.4,0-0.4-0.5-0.4
		c-0.4,0-0.9,0-1.3,0c0-0.1,0-0.2,0-0.3c0-0.3,0.1-0.4,0.4-0.4c1.2,0,2.3,0,3.5,0c0.6,0,0.6,0,0.5,0.6c-0.5,0-1,0-1.4,0
		c-0.3,0-0.4,0.1-0.4,0.4c0,1.6,0,3.3,0,4.9C2.7,26.8,2.7,26.9,2.7,27.1z"/>
	<path id="XMLID_81_" class="st1" d="M33,26.4c0,0.2,0,0.4,0,0.6c-1.1,0-2.1,0-3.2,0c0-0.1,0-0.2,0-0.3c0-1.9,0-3.8,0-5.7
		c0-0.3,0.1-0.3,0.4-0.3c0.3,0,0.4,0.1,0.4,0.3c0,1.7,0,3.3,0,5c0,0.1,0,0.2,0,0.4C31.4,26.4,32.2,26.4,33,26.4z"/>
	<path id="XMLID_80_" class="st1" d="M35.5,21.4c-0.2,0-0.4,0-0.6,0c0,0,0-0.1,0-0.1c0-0.5,0-0.5,0.5-0.5c0.4,0,0.7,0,1.1,0
		c0.4,0,0.4,0,0.4,0.4c0,0.1,0,0.1,0,0.2c-0.2,0-0.4,0-0.6,0c0,0.1,0,0.2,0,0.4c0,1.4,0,2.9,0,4.3c0,0.5,0,0.4,0.4,0.4
		c0,0,0.1,0,0.2,0c0,0.2,0,0.4,0,0.5c-0.6,0-1.3,0-1.9,0c0-0.2,0-0.3,0-0.5c0,0,0.1,0,0.1,0c0.5,0,0.5,0,0.5-0.5c0-1.4,0-2.8,0-4.2
		C35.5,21.6,35.5,21.5,35.5,21.4z"/>
</g>
</svg>
