<svg width="112px" height="54px" viewBox="54 30 112 54" version="1.1" xmlns="http://www.w3.org/2000/svg" xmlns:xlink="http://www.w3.org/1999/xlink">
    <!-- Generator: Sketch 41.2 (35397) - http://www.bohemiancoding.com/sketch -->
    <desc>Created with Sketch.</desc>
    <defs>
        <polygon id="path-1" points="26.9553371 0.243849057 0.090517494 0.243849057 0.090517494 15.7964264 26.9553371 15.7964264 26.9553371 0.243849057"></polygon>
    </defs>
    <g id="Group" stroke="none" stroke-width="1" fill="none" fill-rule="evenodd" transform="translate(55.000000, 30.000000)">
        <g id="Page-1-Copy">
            <g id="Group-3" transform="translate(28.466752, 0.095774)">
                <mask id="mask-2" fill="white">
                    <use xlink:href="#path-1"></use>
                </mask>
                <g id="Clip-2"></g>
                <path d="M9.28968401,15.7964264 C9.19411705,15.2357094 9.14260579,14.634917 9.14260579,13.9977849 C9.14260579,10.368917 10.7197994,7.79389811 13.5227578,7.79389811 C16.3846831,7.79389811 17.9615378,10.368917 17.9615378,13.9977849 C17.9615378,14.634917 17.9100266,15.2357094 17.8141207,15.7964264 L26.8597701,15.7964264 C26.9204314,15.2112566 26.9553371,14.6128415 26.9553371,13.9977849 C26.9553371,5.86212453 21.5242874,0.24374717 13.5227578,0.24374717 C5.58053398,0.24374717 0.090517494,5.86212453 0.090517494,13.9977849 C0.090517494,14.6128415 0.125762044,15.2112566 0.187440007,15.7964264 L9.28968401,15.7964264 Z" id="Fill-1" fill="#FFFFFF" mask="url(#mask-2)"></path>
            </g>
            <polygon id="Fill-4" fill="#FFFFFF" points="58.9831105 15.8923019 68.1524547 15.8923019 68.1524547 0.924792453 58.9831105 0.924792453"></polygon>
            <path d="M70.0485437,5.52158491 C70.0485437,8.27320755 72.2740337,10.5038491 75.0197197,10.5038491 C77.7654058,10.5038491 79.9908958,8.27320755 79.9908958,5.52158491 C79.9908958,2.76996226 77.7654058,0.54 75.0197197,0.54 C72.2740337,0.54 70.0485437,2.76996226 70.0485437,5.52158491" id="Fill-6" fill="#FFFFFF"></path>
            <polygon id="Fill-7" fill="#FFFFFF" points="22.5576983 15.8922 28.2662988 0.924690566 19.2724995 0.924690566 14.4097683 15.8922"></polygon>
            <polygon id="Fill-8" fill="#FFFFFF" points="14.3224025 15.8922 9.34410973 0.924690566 -0.000101666972 0.924690566 5.67494871 15.8922"></polygon>
            <polygon id="Fill-9" fill="#FFFFFF" points="8.84489101 24.3048226 11.2540594 30.658483 16.9596098 30.658483 19.3830115 24.3048226"></polygon>
            <path d="M19.7913061,50.2783472 C19.6649002,49.7162717 19.5994944,49.1131019 19.5994944,48.4797057 C19.5994944,45.0848377 21.4684722,42.5098189 24.6221817,42.5098189 C26.3742425,42.5098189 27.9510973,43.5633283 28.6519216,44.9680075 L28.6519216,50.2783472 L37.8209269,50.2783472 L37.8209269,23.6050642 L28.6519216,23.6050642 L28.6519216,37.4178566 C27.4251401,36.0131774 24.8556769,34.7256679 22.1692966,34.7256679 C14.5768071,34.7256679 10.4301502,40.8708 10.4301502,48.4797057 C10.4301502,49.0900075 10.4599725,49.6894415 10.5128393,50.2783472 L19.7913061,50.2783472 Z" id="Fill-10" fill="#FFFFFF"></path>
            <path d="M58.0519427,44.7548264 C57.5625856,46.4162604 56.219226,47.1675057 54.5010542,47.1675057 C52.7354378,47.1675057 51.4578229,46.3327132 50.7885153,44.7548264 L42.592124,44.7548264 C43.9368392,50.245166 48.3512191,53.7561849 54.5010542,53.7561849 C60.7993231,53.7561849 64.9998635,50.3606377 65.8684384,44.7548264 L58.0519427,44.7548264 Z" id="Fill-11" fill="#FFFFFF"></path>
            <path d="M54.5222348,28.6293736 C56.8002528,28.6293736 58.1432735,30.2683925 58.2598516,32.4338264 L50.3176278,32.4338264 C50.9011962,29.9759774 52.3614728,28.6293736 54.5222348,28.6293736 L54.5222348,28.6293736 Z M67.1374116,36.9993736 L67.1374116,34.7167698 C67.1374116,26.8735245 62.5817146,21.4894868 54.5222348,21.4894868 C46.9300843,21.4894868 41.3234897,27.1078642 41.3234897,35.2435245 C41.3234897,35.8589208 41.3570398,36.4573358 41.4160066,37.042166 L67.1374116,36.9993736 Z" id="Fill-12" fill="#FFFFFF"></path>
            <path d="M79.8092508,37.0419962 L79.8092508,32.3752415 C80.2182909,30.5609774 81.6199395,29.565883 83.1964554,29.565883 C85.2406393,29.565883 86.1749588,31.1461472 86.1749588,33.3699962 L86.1749588,37.0419962 L95.2860139,37.0419962 L95.2860139,32.3752415 C95.7530042,30.5609774 97.0963638,29.565883 98.6732185,29.565883 C100.717064,29.565883 101.651722,31.1461472 101.651722,33.3699962 L101.651722,37.0419962 L110.820727,37.0419962 L110.820727,31.1461472 C110.820727,25.2350151 107.433523,21.489317 101.943506,21.489317 C98.0889723,21.489317 95.402592,23.011166 93.8257373,24.6495057 C92.2488826,22.7768264 89.9125756,21.489317 86.5839989,21.489317 C83.6637846,21.489317 81.1526104,22.6009019 79.8092508,24.2402604 L79.8092508,22.0744868 L70.6402455,22.0744868 L70.6402455,37.0419962 L79.8092508,37.0419962 Z" id="Fill-13" fill="#FFFFFF"></path>
        </g>
    </g>
</svg>
