<?xml version="1.0" encoding="utf-8"?>
<!-- Generator: Adobe Illustrator 19.0.0, SVG Export Plug-In . SVG Version: 6.00 Build 0)  -->
<svg version="1.1" id="Layer_1" xmlns="http://www.w3.org/2000/svg" xmlns:xlink="http://www.w3.org/1999/xlink" x="0px" y="0px"
	 viewBox="0 0 341 340" style="enable-background:new 0 0 341 340;" xml:space="preserve">
<style type="text/css">
	.st0{fill:#4A4A4A;}
	.st1{filter:url(#Adobe_OpacityMaskFilter);}
	.st2{fill:#FFFFFF;}
	.st3{mask:url(#mask12_outline_ins_2_);}
	.st4{fill:#9B9B9B;}
	.st5{filter:url(#Adobe_OpacityMaskFilter_1_);}
	.st6{mask:url(#mask13_outline_ins_2_);}
	.st7{filter:url(#Adobe_OpacityMaskFilter_2_);}
	.st8{mask:url(#mask14_outline_ins_2_);}
	.st9{filter:url(#Adobe_OpacityMaskFilter_3_);}
	.st10{mask:url(#mask15_outline_ins_2_);}
</style>
<g id="Group_1_">
	<g id="screen_holder_d">
		<g id="Rectangle_3_1_">
			<g id="XMLID_118_" transform="translate(738 2202)">
				<path id="path49_fill" class="st0" d="M1,6c0-2.8,2.2-5,5-5h329c2.8,0,5,2.2,5,5v210c0,2.8-2.2,5-5,5H6c-2.8,0-5-2.2-5-5V6z"/>
			</g>
			<defs>
				<filter id="Adobe_OpacityMaskFilter" filterUnits="userSpaceOnUse" x="0" y="0" width="341" height="222">
					<feColorMatrix  type="matrix" values="1 0 0 0 0  0 1 0 0 0  0 0 1 0 0  0 0 0 1 0"/>
				</filter>
			</defs>
			<mask maskUnits="userSpaceOnUse" x="0" y="0" width="341" height="222" id="mask12_outline_ins_2_">
				<g id="XMLID_106_" transform="translate(738 2202)" class="st1">
					<path id="path49_fill_2_" class="st2" d="M1,6c0-2.8,2.2-5,5-5h329c2.8,0,5,2.2,5,5v210c0,2.8-2.2,5-5,5H6c-2.8,0-5-2.2-5-5V6z
						"/>
				</g>
			</mask>
			<g id="XMLID_108_" class="st3">
				<g id="XMLID_109_" transform="translate(738 2202)">
					<path id="path50_stroke_2x" class="st2" d="M6,2h329V0H6V2z M339,6v210h2V6H339z M335,220H6v2h329V220z M2,216V6H0v210H2z M6,0
						C2.7,0,0,2.7,0,6h2c0-2.2,1.8-4,4-4V0z M335,2c2.2,0,4,1.8,4,4h2c0-3.3-2.7-6-6-6V2z M339,216c0,2.2-1.8,4-4,4v2
						c3.3,0,6-2.7,6-6H339z M6,220c-2.2,0-4-1.8-4-4H0c0,3.3,2.7,6,6,6V220z"/>
				</g>
			</g>
		</g>
		<g id="window">
			<g id="Rectangle_3_2_">
				<g id="XMLID_105_" transform="translate(738 2202)">
					<path id="path51_fill" class="st4" d="M1,6c0-2.8,2.2-5,5-5h329c2.8,0,5,2.2,5,5v9.4H1V6z"/>
				</g>
				<defs>
					<filter id="Adobe_OpacityMaskFilter_1_" filterUnits="userSpaceOnUse" x="0" y="0" width="341" height="16.4">
						<feColorMatrix  type="matrix" values="1 0 0 0 0  0 1 0 0 0  0 0 1 0 0  0 0 0 1 0"/>
					</filter>
				</defs>
				<mask maskUnits="userSpaceOnUse" x="0" y="0" width="341" height="16.4" id="mask13_outline_ins_2_">
					<g id="XMLID_54_" transform="translate(738 2202)" class="st5">
						<path id="path51_fill_2_" class="st2" d="M1,6c0-2.8,2.2-5,5-5h329c2.8,0,5,2.2,5,5v9.4H1V6z"/>
					</g>
				</mask>
				<g id="XMLID_95_" class="st6">
					<g id="XMLID_96_" transform="translate(738 2202)">
						<path id="path52_stroke_2x" class="st2" d="M340,15.4v1h1v-1H340z M1,15.4H0v1h1V15.4z M6,2h329V0H6V2z M339,6v9.4h2V6H339z
							 M340,14.4H1v2h339V14.4z M2,15.4V6H0v9.4H2z M6,0C2.7,0,0,2.7,0,6h2c0-2.2,1.8-4,4-4V0z M335,2c2.2,0,4,1.8,4,4h2
							c0-3.3-2.7-6-6-6V2z"/>
					</g>
				</g>
			</g>
			<g id="Oval_1_">
				<g id="XMLID_92_" transform="translate(745.213 2206.81)">
					<path id="path53_fill" class="st2" d="M10,9.4c1,0,1.8-0.8,1.8-1.8c0-1-0.8-1.8-1.8-1.8c-1,0-1.8,0.8-1.8,1.8
						C8.2,8.6,9,9.4,10,9.4z"/>
				</g>
			</g>
			<g id="Oval_2_">
				<g id="XMLID_91_" transform="translate(753.628 2206.81)">
					<path id="path53_fill_1_" class="st2" d="M18.4,9.4c1,0,1.8-0.8,1.8-1.8c0-1-0.8-1.8-1.8-1.8c-1,0-1.8,0.8-1.8,1.8
						C16.6,8.6,17.4,9.4,18.4,9.4z"/>
				</g>
			</g>
			<g id="Oval_3_">
				<g id="XMLID_90_" transform="translate(762.043 2206.81)">
					<path id="path53_fill_2_" class="st2" d="M26.8,9.4c1,0,1.8-0.8,1.8-1.8c0-1-0.8-1.8-1.8-1.8c-1,0-1.8,0.8-1.8,1.8
						C25,8.6,25.9,9.4,26.8,9.4z"/>
				</g>
			</g>
		</g>
	</g>
	<g id="screen_holder_m">
		<g id="Rectangle_3_Copy_1_">
			<g id="XMLID_89_" transform="translate(938 2372.21)">
				<path id="path54_fill" class="st0" d="M201,176.2c0-2.8,2.2-5,5-5h103c2.8,0,5,2.2,5,5V334c0,2.8-2.2,5-5,5H206
					c-2.8,0-5-2.2-5-5V176.2z"/>
			</g>
			<defs>
				<filter id="Adobe_OpacityMaskFilter_2_" filterUnits="userSpaceOnUse" x="200" y="170.2" width="115" height="169.8">
					<feColorMatrix  type="matrix" values="1 0 0 0 0  0 1 0 0 0  0 0 1 0 0  0 0 0 1 0"/>
				</filter>
			</defs>
			<mask maskUnits="userSpaceOnUse" x="200" y="170.2" width="115" height="169.8" id="mask14_outline_ins_2_">
				<g id="XMLID_36_" transform="translate(938 2372.21)" class="st7">
					<path id="path54_fill_2_" class="st2" d="M201,176.2c0-2.8,2.2-5,5-5h103c2.8,0,5,2.2,5,5V334c0,2.8-2.2,5-5,5H206
						c-2.8,0-5-2.2-5-5V176.2z"/>
				</g>
			</mask>
			<g id="XMLID_79_" class="st8">
				<g id="XMLID_80_" transform="translate(938 2372.21)">
					<path id="path55_stroke_2x" class="st2" d="M206,172.2h103v-2H206V172.2z M313,176.2V334h2V176.2H313z M309,338H206v2h103V338z
						 M202,334V176.2h-2V334H202z M206,170.2c-3.3,0-6,2.7-6,6h2c0-2.2,1.8-4,4-4V170.2z M309,172.2c2.2,0,4,1.8,4,4h2
						c0-3.3-2.7-6-6-6V172.2z M313,334c0,2.2-1.8,4-4,4v2c3.3,0,6-2.7,6-6H313z M206,338c-2.2,0-4-1.8-4-4h-2c0,3.3,2.7,6,6,6V338z"
						/>
				</g>
			</g>
		</g>
		<g id="window_1_">
			<g id="Rectangle_3_3_">
				<g id="XMLID_76_" transform="translate(938 2371)">
					<path id="path56_fill" class="st4" d="M201,175c0-2.8,2.2-5,5-5h103c2.8,0,5,2.2,5,5v9.5H201V175z"/>
				</g>
				<defs>
					<filter id="Adobe_OpacityMaskFilter_3_" filterUnits="userSpaceOnUse" x="200" y="169" width="115" height="16.5">
						<feColorMatrix  type="matrix" values="1 0 0 0 0  0 1 0 0 0  0 0 1 0 0  0 0 0 1 0"/>
					</filter>
				</defs>
				<mask maskUnits="userSpaceOnUse" x="200" y="169" width="115" height="16.5" id="mask15_outline_ins_2_">
					<g id="XMLID_21_" transform="translate(938 2371)" class="st9">
						<path id="path56_fill_2_" class="st2" d="M201,175c0-2.8,2.2-5,5-5h103c2.8,0,5,2.2,5,5v9.5H201V175z"/>
					</g>
				</mask>
				<g id="XMLID_66_" class="st10">
					<g id="XMLID_67_" transform="translate(938 2371)">
						<path id="path57_stroke_2x" class="st2" d="M314,184.5v1h1v-1H314z M201,184.5h-1v1h1V184.5z M206,171h103v-2H206V171z
							 M313,175v9.5h2V175H313z M314,183.5H201v2h113V183.5z M202,184.5V175h-2v9.5H202z M206,169c-3.3,0-6,2.7-6,6h2
							c0-2.2,1.8-4,4-4V169z M309,171c2.2,0,4,1.8,4,4h2c0-3.3-2.7-6-6-6V171z"/>
					</g>
				</g>
			</g>
			<g id="Oval_4_">
				<g id="XMLID_63_" transform="translate(945.213 2375.83)">
					<path id="path58_fill" class="st2" d="M210,178.5c1,0,1.8-0.8,1.8-1.8s-0.8-1.8-1.8-1.8s-1.8,0.8-1.8,1.8S209,178.5,210,178.5z
						"/>
				</g>
			</g>
			<g id="Oval_5_">
				<g id="XMLID_62_" transform="translate(953.628 2375.83)">
					<path id="path58_fill_1_" class="st2" d="M218.4,178.5c1,0,1.8-0.8,1.8-1.8s-0.8-1.8-1.8-1.8s-1.8,0.8-1.8,1.8
						S217.4,178.5,218.4,178.5z"/>
				</g>
			</g>
			<g id="Oval_6_">
				<g id="XMLID_61_" transform="translate(962.043 2375.83)">
					<path id="path58_fill_2_" class="st2" d="M226.8,178.5c1,0,1.8-0.8,1.8-1.8s-0.8-1.8-1.8-1.8s-1.8,0.8-1.8,1.8
						S225.9,178.5,226.8,178.5z"/>
				</g>
			</g>
		</g>
	</g>
</g>
</svg>
